<svg height="512pt" viewBox="-18 0 512 512.01666" width="512pt" xmlns="http://www.w3.org/2000/svg"><path d="m123.59375 252.308594h-2.734375c-37.960937 3.355468-74.417969 8.296875-108.933594 14.742187-14.148437-85.34375 20.894531-171.390625 90.636719-222.570312 69.742188-51.179688 162.335938-58.800781 239.507812-19.707031 77.171876 39.089843 125.804688 118.253906 125.800782 204.761718.003906 12.566406-1.027344 25.117188-3.089844 37.515625-39.867188-7.3125-80.085938-12.558593-120.496094-15.710937zm0 0" fill="#b0d3f0"/><path d="m385.507812 405.644531c13.265626 13.929688 30.894532 22.902344 49.964844 25.421875 8.492188 1.4375 14.714844 8.777344 14.742188 17.390625v45.90625c-.027344 9.738281-7.914063 17.625-17.65625 17.652344h-388.414063c-9.738281-.027344-17.625-7.914063-17.652343-17.652344v-45.90625c.023437-8.613281 6.25-15.953125 14.742187-17.390625 19.066406-2.519531 36.699219-11.492187 49.964844-25.421875zm0 0" fill="#894b9d"/><path d="m132.421875 467.878906c-.015625 4.871094-3.957031 8.8125-8.828125 8.828125h-97.101562v-17.65625h97.101562c4.871094.015625 8.8125 3.957031 8.828125 8.828125zm0 0" fill="#3d324c"/><path d="m450.214844 459.050781v17.65625h-97.101563c-4.875 0-8.828125-3.953125-8.828125-8.828125s3.953125-8.828125 8.828125-8.828125zm0 0" fill="#3d324c"/><path d="m344.285156 251.339844c40.410156 3.152344 80.628906 8.398437 120.496094 15.710937-18.359375 110.761719-114.15625 191.984375-226.429688 191.984375-112.273437 0-208.066406-81.222656-226.425781-191.984375 34.515625-6.445312 70.972657-11.386719 108.933594-14.742187h2.734375zm0 0" fill="#90bae1"/><path d="m344.285156 150.085938v229.515624c-.015625 4.871094-3.960937 8.816407-8.828125 8.828126h-158.898437c-4.867188-.011719-8.8125-3.957032-8.824219-8.828126v-273.652343c.011719-4.871094 3.957031-8.816407 8.824219-8.828125h114.761718zm0 0" fill="#f9eab0"/><path d="m185.386719 51.464844c-4.402344-.007813-8.125-3.257813-8.726563-7.617188-.601562-4.359375 2.097656-8.5 6.332032-9.703125 18.011718-5.082031 36.644531-7.65625 55.359374-7.644531 4.875 0 8.828126 3.953125 8.828126 8.828125s-3.953126 8.828125-8.828126 8.828125c-17.09375-.011719-34.109374 2.332031-50.5625 6.972656-.78125.222656-1.589843.335938-2.402343.335938zm0 0" fill="#fff"/><path d="m96.289062 105.949219c-3.515624-.003907-6.691406-2.085938-8.09375-5.308594-1.402343-3.222656-.757812-6.96875 1.636719-9.539063 13.488281-14.480468 29.019531-26.914062 46.097657-36.914062 4.210937-2.460938 9.617187-1.042969 12.082031 3.164062 2.460937 4.210938 1.042969 9.617188-3.164063 12.078126-15.597656 9.128906-29.78125 20.484374-42.097656 33.707031-1.667969 1.796875-4.011719 2.816406-6.460938 2.8125zm0 0" fill="#fff"/><g fill="#894b9d"><path d="m441.386719 52.980469c-3.570313 0-6.785157-2.148438-8.152344-5.449219-1.367187-3.296875-.613281-7.09375 1.914063-9.617188l17.652343-17.65625c2.21875-2.292968 5.5-3.214843 8.585938-2.40625 3.085937.808594 5.496093 3.21875 6.304687 6.304688s-.113281 6.367188-2.40625 8.585938l-17.65625 17.652343c-1.652344 1.660157-3.898437 2.589844-6.242187 2.585938zm0 0"/><path d="m414.90625 35.328125c-4.875 0-8.828125-3.953125-8.828125-8.828125v-8.828125c0-4.875 3.953125-8.828125 8.828125-8.828125s8.828125 3.953125 8.828125 8.828125v8.828125c0 4.875-3.953125 8.828125-8.828125 8.828125zm0 0"/><path d="m467.871094 79.464844h-8.828125c-4.875 0-8.828125-3.953125-8.828125-8.828125s3.953125-8.828125 8.828125-8.828125h8.828125c4.875 0 8.828125 3.953125 8.828125 8.828125s-3.953125 8.828125-8.828125 8.828125zm0 0"/><path d="m35.320312 52.980469c-2.34375.003906-4.589843-.925781-6.242187-2.585938l-17.65625-17.652343c-3.34375-3.464844-3.296875-8.972657.109375-12.375 3.402344-3.40625 8.910156-3.453126 12.375-.109376l17.652344 17.65625c2.523437 2.523438 3.28125 6.320313 1.914062 9.617188-1.367187 3.300781-4.585937 5.449219-8.152344 5.449219zm0 0"/><path d="m61.800781 35.328125c-4.875 0-8.828125-3.953125-8.828125-8.828125v-8.828125c0-4.875 3.953125-8.828125 8.828125-8.828125s8.828125 3.953125 8.828125 8.828125v8.828125c0 4.875-3.953125 8.828125-8.828125 8.828125zm0 0"/><path d="m17.664062 79.464844h-8.828124c-4.875 0-8.8281255-3.953125-8.8281255-8.828125s3.9531255-8.828125 8.8281255-8.828125h8.828124c4.875 0 8.828126 3.953125 8.828126 8.828125s-3.953126 8.828125-8.828126 8.828125zm0 0"/></g><path d="m291.320312 141.257812c0 4.875 3.949219 8.828126 8.824219 8.828126h44.140625l-52.964844-52.964844zm0 0" fill="#f3d55b"/><path d="m203.042969 256.015625c-3.394531 0-6.484375-1.949219-7.953125-5.007813-1.46875-3.058593-1.054688-6.6875 1.066406-9.335937l35.3125-44.136719c2.304688-2.898437 6.175781-4.039062 9.683594-2.855468l22.09375 7.363281 31.605468-23.710938c3.898438-2.921875 9.429688-2.132812 12.355469 1.765625 2.925781 3.902344 2.136719 9.433594-1.765625 12.359375l-35.308594 26.484375c-2.316406 1.746094-5.34375 2.234375-8.089843 1.308594l-20.644531-6.878906-31.464844 39.335937c-1.675782 2.09375-4.210938 3.308594-6.890625 3.308594zm0 0" fill="#ff5364"/><path d="m308.972656 291.328125h-105.929687c-4.875 0-8.828125-3.953125-8.828125-8.828125s3.953125-8.828125 8.828125-8.828125h105.929687c4.875 0 8.828125 3.953125 8.828125 8.828125s-3.953125 8.828125-8.828125 8.828125zm0 0" fill="#464f5d"/><path d="m238.351562 326.636719h-35.308593c-4.875 0-8.828125-3.953125-8.828125-8.828125s3.953125-8.828125 8.828125-8.828125h35.308593c4.875 0 8.828126 3.953125 8.828126 8.828125s-3.953126 8.828125-8.828126 8.828125zm0 0" fill="#464f5d"/><path d="m273.664062 361.949219h-70.621093c-4.875 0-8.828125-3.953125-8.828125-8.828125s3.953125-8.828125 8.828125-8.828125h70.621093c4.875 0 8.828126 3.953125 8.828126 8.828125s-3.953126 8.828125-8.828126 8.828125zm0 0" fill="#464f5d"/><path d="m256.007812 150.085938h-52.964843c-4.875 0-8.828125-3.953126-8.828125-8.828126s3.953125-8.828124 8.828125-8.828124h52.964843c4.875 0 8.828126 3.953124 8.828126 8.828124s-3.953126 8.828126-8.828126 8.828126zm0 0" fill="#464f5d"/><path d="m167.734375 132.429688v229.519531h-35.3125c-4.871094-.015625-8.8125-3.960938-8.828125-8.828125v-211.863282c.015625-4.871093 3.957031-8.8125 8.828125-8.828124zm0 0" fill="#e4c05c"/><path d="m308.972656 256.015625h-105.929687c-4.875 0-8.828125-3.953125-8.828125-8.828125v-70.617188c0-4.878906 3.953125-8.828124 8.828125-8.828124s8.828125 3.949218 8.828125 8.828124v61.792969h97.101562c4.875 0 8.828125 3.949219 8.828125 8.824219s-3.953125 8.828125-8.828125 8.828125zm0 0" fill="#464f5d"/></svg>